<?xml version="1.0" encoding="utf-8"?>
<svg version="1.1" xmlns:xlink="http://www.w3.org/1999/xlink" width="186px" height="109px" xmlns="http://www.w3.org/2000/svg">
  <g transform="matrix(1 0 0 1 -232 -78 )">
    <path d="M 232 78  L 418 78  L 418 187  L 232 187  L 232 78  " fill-rule="nonzero" fill="#cccccc" stroke="none" />
    <path d="M 240 86  L 410 86  L 410 179  L 240 179  L 240 86  " fill-rule="nonzero" fill="#ffffff" stroke="none" />
    <path d="M 336.895 110.7  C 332.317 110.7  328.72 107.103  328.72 102.525  C 328.72 97.947  332.317 94.35  336.895 94.35  C 341.473 94.35  345.07 97.947  345.07 102.525  C 345.07 107.103  341.473 110.7  336.895 110.7  " fill-rule="nonzero" fill="#cccccc" stroke="none" />
    <path d="M 243 177  L 243 128.6  L 284.25 106.6  L 342 146.058064516129  L 375 119.8  L 408 146.058064516129  L 408 177  L 243 177  " fill-rule="nonzero" fill="#169bd5" stroke="none" />
  </g>
</svg>