<?xml version="1.0" encoding="utf-8"?>
<svg version="1.1" xmlns:xlink="http://www.w3.org/1999/xlink" width="261px" height="158px" xmlns="http://www.w3.org/2000/svg">
  <g transform="matrix(1 0 0 1 -197 -99 )">
    <path d="M 197 99  L 458 99  L 458 257  L 197 257  L 197 99  " fill-rule="nonzero" fill="#cccccc" stroke="none" />
    <path d="M 208 110  L 447 110  L 447 246  L 208 246  L 208 110  " fill-rule="nonzero" fill="#ffffff" stroke="none" />
    <path d="M 344.57 146.4  C 337.934 146.4  332.72 141.186  332.72 134.55  C 332.72 127.914  337.934 122.7  344.57 122.7  C 351.206 122.7  356.42 127.914  356.42 134.55  C 356.42 141.186  351.206 146.4  344.57 146.4  " fill-rule="nonzero" fill="#cccccc" stroke="none" />
    <path d="M 212 242  L 212 171.6  L 269.75 139.6  L 350.6 195.508045977012  L 396.8 158.8  L 443 195.508045977012  L 443 242  L 212 242  " fill-rule="nonzero" fill="#169bd5" stroke="none" />
  </g>
</svg>